<mxfile host="app.diagrams.net" modified="2023-08-30T19:08:56.799Z" agent="Mozilla/5.0 (Windows NT 10.0; Win64; x64; rv:109.0) Gecko/20100101 Firefox/116.0" etag="Zr4mLg5iEnyoI_N01TAZ" version="21.7.0" type="device">
  <diagram name="Page-1" id="7e0a89b8-554c-2b80-1dc8-d5c74ca68de4">
    <mxGraphModel dx="2035" dy="1173" grid="1" gridSize="10" guides="1" tooltips="1" connect="1" arrows="1" fold="1" page="1" pageScale="1" pageWidth="1100" pageHeight="850" background="none" math="0" shadow="0">
      <root>
        <mxCell id="0" />
        <mxCell id="1" parent="0" />
        <mxCell id="mJmgIE37o_1EEMdudaHA-2" value="PMSM" style="verticalLabelPosition=middle;shadow=0;dashed=0;align=center;html=1;verticalAlign=middle;strokeWidth=1;shape=ellipse;aspect=fixed;fontSize=35;fillColor=#e1d5e7;strokeColor=#9673a6;" parent="1" vertex="1">
          <mxGeometry x="848" y="285" width="125" height="125" as="geometry" />
        </mxCell>
        <mxCell id="mJmgIE37o_1EEMdudaHA-65" value="3 Phase Inverter " style="rounded=1;whiteSpace=wrap;html=1;fillColor=#e1d5e7;strokeColor=#9673a6;" parent="1" vertex="1">
          <mxGeometry x="638" y="282.5" width="140" height="127.5" as="geometry" />
        </mxCell>
        <mxCell id="O7mWT4Z4WbU8HAv7M1Bn-7" value="" style="edgeStyle=orthogonalEdgeStyle;rounded=0;orthogonalLoop=1;jettySize=auto;html=1;" edge="1" parent="1" source="O7mWT4Z4WbU8HAv7M1Bn-3" target="O7mWT4Z4WbU8HAv7M1Bn-4">
          <mxGeometry relative="1" as="geometry" />
        </mxCell>
        <mxCell id="O7mWT4Z4WbU8HAv7M1Bn-3" value="&lt;div&gt;Current&lt;/div&gt;&lt;div&gt;&amp;nbsp;Controller&lt;/div&gt;" style="rounded=1;whiteSpace=wrap;html=1;fillColor=#ffe6cc;strokeColor=#d79b00;" vertex="1" parent="1">
          <mxGeometry x="435" y="330.00000000000006" width="120" height="60" as="geometry" />
        </mxCell>
        <mxCell id="O7mWT4Z4WbU8HAv7M1Bn-4" value="Plant" style="rounded=1;whiteSpace=wrap;html=1;fillColor=#e1d5e7;strokeColor=#9673a6;opacity=50;" vertex="1" parent="1">
          <mxGeometry x="590" y="225" width="448" height="270" as="geometry" />
        </mxCell>
        <mxCell id="O7mWT4Z4WbU8HAv7M1Bn-6" value="" style="endArrow=classic;html=1;rounded=0;" edge="1" parent="1">
          <mxGeometry width="50" height="50" relative="1" as="geometry">
            <mxPoint x="30" y="359.5" as="sourcePoint" />
            <mxPoint x="100" y="359.5" as="targetPoint" />
          </mxGeometry>
        </mxCell>
        <mxCell id="O7mWT4Z4WbU8HAv7M1Bn-24" value="ω_ref" style="edgeLabel;html=1;align=center;verticalAlign=middle;resizable=0;points=[];" vertex="1" connectable="0" parent="O7mWT4Z4WbU8HAv7M1Bn-6">
          <mxGeometry x="-0.5905" y="3" relative="1" as="geometry">
            <mxPoint y="-10" as="offset" />
          </mxGeometry>
        </mxCell>
        <mxCell id="O7mWT4Z4WbU8HAv7M1Bn-12" value="Position Sensor" style="rounded=1;whiteSpace=wrap;html=1;fillColor=#e1d5e7;strokeColor=#9673a6;" vertex="1" parent="1">
          <mxGeometry x="850.5" y="420.5" width="120" height="60" as="geometry" />
        </mxCell>
        <mxCell id="O7mWT4Z4WbU8HAv7M1Bn-18" value="" style="edgeStyle=orthogonalEdgeStyle;rounded=0;orthogonalLoop=1;jettySize=auto;html=1;" edge="1" parent="1" target="O7mWT4Z4WbU8HAv7M1Bn-17">
          <mxGeometry relative="1" as="geometry">
            <mxPoint x="323" y="600" as="sourcePoint" />
          </mxGeometry>
        </mxCell>
        <mxCell id="O7mWT4Z4WbU8HAv7M1Bn-15" value="" style="endArrow=classic;html=1;rounded=0;entryX=1;entryY=0.5;entryDx=0;entryDy=0;exitX=0.481;exitY=1.005;exitDx=0;exitDy=0;exitPerimeter=0;entryPerimeter=0;" edge="1" parent="1" source="O7mWT4Z4WbU8HAv7M1Bn-12" target="O7mWT4Z4WbU8HAv7M1Bn-26">
          <mxGeometry width="50" height="50" relative="1" as="geometry">
            <mxPoint x="948" y="600" as="sourcePoint" />
            <mxPoint x="518" y="600" as="targetPoint" />
            <Array as="points">
              <mxPoint x="908" y="600" />
            </Array>
          </mxGeometry>
        </mxCell>
        <mxCell id="O7mWT4Z4WbU8HAv7M1Bn-30" value="θ - Rotor Position" style="edgeLabel;html=1;align=center;verticalAlign=middle;resizable=0;points=[];" vertex="1" connectable="0" parent="O7mWT4Z4WbU8HAv7M1Bn-15">
          <mxGeometry x="-0.508" relative="1" as="geometry">
            <mxPoint x="-338" y="-10" as="offset" />
          </mxGeometry>
        </mxCell>
        <mxCell id="O7mWT4Z4WbU8HAv7M1Bn-22" value="" style="edgeStyle=orthogonalEdgeStyle;rounded=0;orthogonalLoop=1;jettySize=auto;html=1;entryX=0.5;entryY=1;entryDx=0;entryDy=0;entryPerimeter=0;" edge="1" parent="1" source="O7mWT4Z4WbU8HAv7M1Bn-17" target="O7mWT4Z4WbU8HAv7M1Bn-19">
          <mxGeometry relative="1" as="geometry">
            <mxPoint x="239" y="496.9999999999998" as="targetPoint" />
          </mxGeometry>
        </mxCell>
        <mxCell id="O7mWT4Z4WbU8HAv7M1Bn-31" value="ω - velocity" style="edgeLabel;html=1;align=center;verticalAlign=middle;resizable=0;points=[];" vertex="1" connectable="0" parent="O7mWT4Z4WbU8HAv7M1Bn-22">
          <mxGeometry x="-0.1111" relative="1" as="geometry">
            <mxPoint x="32" as="offset" />
          </mxGeometry>
        </mxCell>
        <mxCell id="O7mWT4Z4WbU8HAv7M1Bn-17" value="LP" style="verticalLabelPosition=bottom;shadow=0;dashed=0;align=center;html=1;verticalAlign=top;shape=mxgraph.electrical.logic_gates.lowpass_filter;" vertex="1" parent="1">
          <mxGeometry x="202" y="577" width="52" height="46" as="geometry" />
        </mxCell>
        <mxCell id="O7mWT4Z4WbU8HAv7M1Bn-29" value="" style="edgeStyle=orthogonalEdgeStyle;rounded=0;orthogonalLoop=1;jettySize=auto;html=1;" edge="1" parent="1" source="O7mWT4Z4WbU8HAv7M1Bn-19" target="O7mWT4Z4WbU8HAv7M1Bn-27">
          <mxGeometry relative="1" as="geometry" />
        </mxCell>
        <mxCell id="O7mWT4Z4WbU8HAv7M1Bn-32" value="error" style="edgeLabel;html=1;align=center;verticalAlign=middle;resizable=0;points=[];" vertex="1" connectable="0" parent="O7mWT4Z4WbU8HAv7M1Bn-29">
          <mxGeometry x="-0.0655" y="-1" relative="1" as="geometry">
            <mxPoint y="-15" as="offset" />
          </mxGeometry>
        </mxCell>
        <mxCell id="O7mWT4Z4WbU8HAv7M1Bn-19" value="" style="verticalLabelPosition=bottom;shadow=0;dashed=0;align=center;html=1;verticalAlign=top;shape=mxgraph.electrical.abstract.sum;" vertex="1" parent="1">
          <mxGeometry x="203" y="335" width="50" height="50" as="geometry" />
        </mxCell>
        <mxCell id="O7mWT4Z4WbU8HAv7M1Bn-23" value="-" style="text;html=1;align=center;verticalAlign=middle;resizable=0;points=[];autosize=1;strokeColor=none;fillColor=none;" vertex="1" parent="1">
          <mxGeometry x="226" y="380" width="30" height="30" as="geometry" />
        </mxCell>
        <mxCell id="O7mWT4Z4WbU8HAv7M1Bn-26" value="dr/dt" style="shape=mxgraph.electrical.abstract.function;html=1;shadow=0;dashed=0;align=center;strokeWidth=1;fontSize=24" vertex="1" parent="1">
          <mxGeometry x="320" y="570" width="60" height="60" as="geometry" />
        </mxCell>
        <mxCell id="O7mWT4Z4WbU8HAv7M1Bn-28" value="" style="edgeStyle=orthogonalEdgeStyle;rounded=0;orthogonalLoop=1;jettySize=auto;html=1;" edge="1" parent="1" source="O7mWT4Z4WbU8HAv7M1Bn-27" target="O7mWT4Z4WbU8HAv7M1Bn-3">
          <mxGeometry relative="1" as="geometry" />
        </mxCell>
        <mxCell id="O7mWT4Z4WbU8HAv7M1Bn-27" value="PI" style="rounded=1;whiteSpace=wrap;html=1;" vertex="1" parent="1">
          <mxGeometry x="311.5" y="330" width="77" height="60" as="geometry" />
        </mxCell>
        <mxCell id="O7mWT4Z4WbU8HAv7M1Bn-33" value="LP" style="verticalLabelPosition=bottom;shadow=0;dashed=0;align=center;html=1;verticalAlign=top;shape=mxgraph.electrical.logic_gates.lowpass_filter;" vertex="1" parent="1">
          <mxGeometry x="100" y="337" width="52" height="46" as="geometry" />
        </mxCell>
        <mxCell id="O7mWT4Z4WbU8HAv7M1Bn-38" value="" style="endArrow=classic;html=1;rounded=0;exitX=1;exitY=0.5;exitDx=0;exitDy=0;exitPerimeter=0;entryX=0;entryY=0.5;entryDx=0;entryDy=0;entryPerimeter=0;" edge="1" parent="1" source="O7mWT4Z4WbU8HAv7M1Bn-33" target="O7mWT4Z4WbU8HAv7M1Bn-19">
          <mxGeometry width="50" height="50" relative="1" as="geometry">
            <mxPoint x="150" y="410" as="sourcePoint" />
            <mxPoint x="200" y="360" as="targetPoint" />
          </mxGeometry>
        </mxCell>
        <mxCell id="O7mWT4Z4WbU8HAv7M1Bn-39" value="Velocity Controller" style="text;html=1;align=center;verticalAlign=middle;resizable=0;points=[];autosize=1;strokeColor=none;fillColor=none;" vertex="1" parent="1">
          <mxGeometry x="490" y="680" width="120" height="30" as="geometry" />
        </mxCell>
      </root>
    </mxGraphModel>
  </diagram>
</mxfile>
